<svg width="274" height="80" viewBox="0 0 274 80" fill="none" xmlns="http://www.w3.org/2000/svg">
<path d="M34.6404 0L0 19.9984V59.9984L33.3574 79.2591L34.6404 80L35.9233 79.2591V19.3665L41.9854 15.864H41.9886L59.2158 25.8103V54.1865L41.0553 64.6716L38.4893 66.1535V77.7772L41.0553 76.2954L69.2807 59.9984V19.9984L34.6404 0ZM33.3574 67.6353L10.0682 54.1865V40.3207L16.5472 44.0606L19.1131 45.5425L33.3574 53.7663V67.6353ZM33.3574 50.8027L21.6791 44.0606L19.1131 42.5788L12.6309 38.8357L10.0682 37.3571V25.8103L12.6341 24.3284L12.7143 24.2803L16.5472 26.4935L19.1131 27.9753L25.5922 31.7152L28.1581 33.197L33.3574 36.1992V50.8027V50.8027ZM33.3574 33.2355L30.7273 31.7152L28.1645 30.2333L21.6855 26.4935L19.1196 25.0116L15.2899 22.7985L19.1196 20.5886L21.6855 19.1067L27.3017 15.864L33.3638 19.3665V33.2355H33.3574ZM35.9233 16.4029L34.6404 17.1438L33.3574 16.4029L29.8613 14.3822L33.3574 12.3647L34.6404 11.6238L35.9233 12.3647L39.4195 14.3822L35.9233 16.4029ZM66.7148 58.5166L41.0553 73.3317V67.6353L61.7817 55.6683V24.3284L44.5546 14.3822L34.6404 8.66009L24.7294 14.3822L12.7175 21.3167L10.1483 22.8017L7.50221 24.3284H7.499V55.6683H7.50221L10.065 57.147L33.3574 70.599V76.2954L2.56595 58.5166V21.4802L34.6404 2.96368L66.7148 21.4802V58.5166V58.5166Z" fill="url(#paint0_linear_404_3587)"/>
<path d="M84.1632 13.5996V29.1556H80.4746V13.5996H84.1632ZM93.1119 13.5996L88.1404 20.5918L93.4968 29.1556H89.2309L84.2594 20.8484L89.1988 13.5996H93.1119Z" fill="white"/>
<path d="M98.9493 13.5996V26.2369H105.011L104.626 29.1556H95.2607V13.5996H98.9493Z" fill="white"/>
<path d="M115.532 29.1556L114.73 25.8199H110.208L109.406 29.1556H105.589L110.272 13.5996H114.73L119.413 29.1556H115.532ZM110.817 23.1257H114.089L112.453 16.2617L110.817 23.1257Z" fill="white"/>
<path d="M129.195 13.6958C130.061 14.0165 130.831 14.5297 131.537 15.2033L129.837 17.1919C128.779 16.3259 127.624 15.8768 126.437 15.8768C125.796 15.8768 125.282 16.0051 124.897 16.2617C124.513 16.5183 124.32 16.9032 124.32 17.3843C124.32 17.7372 124.416 17.9937 124.577 18.2183C124.737 18.4428 125.026 18.6352 125.443 18.8277C125.86 19.0201 126.501 19.2447 127.335 19.5333C128.907 20.0465 130.094 20.6559 130.831 21.3936C131.569 22.1314 131.954 23.1898 131.954 24.5369C131.954 25.4992 131.697 26.3652 131.216 27.1029C130.735 27.8406 129.997 28.4179 129.067 28.8349C128.137 29.2519 127.046 29.4443 125.764 29.4443C124.481 29.4443 123.358 29.2519 122.396 28.8349C121.401 28.4179 120.567 27.9047 119.862 27.2312L121.722 25.1784C122.332 25.6916 122.941 26.0765 123.582 26.3331C124.224 26.5897 124.897 26.718 125.667 26.718C126.437 26.718 127.046 26.5576 127.463 26.2048C127.912 25.8841 128.137 25.4029 128.137 24.7935C128.137 24.4086 128.041 24.0879 127.88 23.8313C127.72 23.5747 127.431 23.3181 127.014 23.1257C126.597 22.9011 126.02 22.6766 125.25 22.4521C123.518 21.9389 122.299 21.2974 121.594 20.5276C120.888 19.7578 120.503 18.7956 120.503 17.6409C120.503 16.7428 120.728 15.941 121.209 15.2674C121.69 14.5939 122.364 14.0486 123.198 13.6958C124.064 13.343 125.026 13.1505 126.084 13.1505C127.335 13.2147 128.329 13.375 129.195 13.6958Z" fill="white"/>
<path d="M144.719 13.5996L144.367 16.4221H140.518V29.1556H136.829V16.4221H132.82V13.5996H144.719Z" fill="white"/>
<path d="M156.298 13.5996L155.914 16.2297H150.429V19.9503H155.208V22.5162H150.429V26.4935H156.298V29.1556H146.74V13.5996H156.298Z" fill="white"/>
<path d="M164.253 23.1898H162.81V29.1236H159.121V13.5675H164.221C166.338 13.5675 167.942 13.9524 169 14.7222C170.058 15.4919 170.604 16.6787 170.604 18.2824C170.604 19.2767 170.379 20.1107 169.898 20.7842C169.417 21.4578 168.647 22.0031 167.621 22.4842L171.566 29.1236H167.396L164.253 23.1898ZM162.81 20.6559H164.349C165.183 20.6559 165.793 20.4635 166.21 20.0786C166.627 19.6937 166.819 19.1164 166.819 18.3145C166.819 17.5768 166.594 17.0315 166.145 16.6787C165.696 16.3259 165.023 16.1655 164.125 16.1655H162.81V20.6559V20.6559Z" fill="white"/>
<path d="M88.5894 38.361L87.2744 39.7402C86.8895 39.4515 86.5046 39.227 86.1838 39.0987C85.831 38.9704 85.4461 38.9063 85.0292 38.9063C84.1952 38.9063 83.5537 39.227 83.0726 39.8685C82.5915 40.51 82.3349 41.5043 82.3349 42.8193C82.3349 44.2306 82.5274 45.257 82.9122 45.8343C83.2971 46.4117 83.8745 46.7324 84.6763 46.7324C85.2216 46.7324 85.7348 46.6041 86.1838 46.3796V43.8457H84.7405L84.4839 41.9854H88.6536V47.5022C88.0762 47.8871 87.4347 48.1758 86.7291 48.3682C86.0235 48.5607 85.3499 48.6569 84.6443 48.6569C82.9443 48.6569 81.6934 48.1758 80.8274 47.1815C79.9614 46.1872 79.5444 44.7438 79.5444 42.8193C79.5444 41.6005 79.769 40.5421 80.2501 39.6761C80.6991 38.81 81.3406 38.1365 82.1425 37.6874C82.9443 37.2384 83.8424 37.0139 84.8688 37.0139C86.3121 37.0139 87.563 37.4629 88.5894 38.361Z" fill="white"/>
<path d="M99.0136 38.5214C99.9117 39.5478 100.329 40.959 100.329 42.8194C100.329 44.0382 100.136 45.0646 99.7193 45.9627C99.3023 46.8607 98.757 47.5022 97.9873 47.9833C97.2175 48.4645 96.3515 48.689 95.293 48.689C94.2666 48.689 93.3685 48.4645 92.5988 48.0154C91.861 47.5664 91.2837 46.8928 90.8667 46.0268C90.4818 45.1608 90.2573 44.1023 90.2573 42.8835C90.2573 41.6968 90.4498 40.6383 90.8667 39.7723C91.2837 38.9063 91.829 38.2327 92.5988 37.7516C93.3365 37.2705 94.2346 37.046 95.293 37.046C96.8967 37.0139 98.1156 37.5271 99.0136 38.5214ZM93.6251 39.8364C93.2723 40.4458 93.0799 41.4402 93.0799 42.8194C93.0799 44.1986 93.2723 45.1929 93.6572 45.8023C94.0421 46.4117 94.5874 46.7324 95.3251 46.7324C96.0949 46.7324 96.6722 46.4117 97.025 45.8023C97.3778 45.1929 97.5703 44.1986 97.5703 42.8194C97.5703 41.4402 97.3778 40.4458 96.993 39.8364C96.6081 39.227 96.0628 38.9384 95.293 38.9384C94.5553 38.9384 93.978 39.227 93.6251 39.8364Z" fill="white"/>
<path d="M108.058 37.3667C108.668 37.5912 109.245 37.9761 109.726 38.4572L108.507 39.9006C107.738 39.2912 106.936 38.9704 106.07 38.9704C105.621 38.9704 105.236 39.0666 104.979 39.2591C104.723 39.4515 104.594 39.7081 104.594 40.0609C104.594 40.3175 104.658 40.51 104.755 40.6704C104.883 40.8307 105.075 40.959 105.396 41.1194C105.685 41.2477 106.134 41.4081 106.743 41.6005C107.866 41.9533 108.7 42.4024 109.245 42.9476C109.79 43.4929 110.047 44.2306 110.047 45.1928C110.047 45.8985 109.887 46.5079 109.534 47.0211C109.181 47.5343 108.668 47.9512 107.994 48.2399C107.321 48.5286 106.551 48.689 105.621 48.689C104.723 48.689 103.921 48.5607 103.215 48.272C102.509 47.9833 101.9 47.5984 101.419 47.1173L102.734 45.6419C103.151 45.9947 103.6 46.2834 104.049 46.4758C104.498 46.6683 105.011 46.7324 105.524 46.7324C106.07 46.7324 106.487 46.6041 106.807 46.3796C107.128 46.123 107.289 45.8023 107.289 45.3853C107.289 45.0966 107.224 44.8721 107.096 44.6797C106.968 44.4872 106.775 44.3268 106.487 44.1665C106.198 44.0061 105.781 43.8457 105.236 43.6854C104.017 43.3005 103.119 42.8514 102.606 42.3062C102.093 41.7609 101.836 41.0553 101.836 40.2213C101.836 39.5798 101.996 39.0025 102.349 38.5214C102.702 38.0403 103.151 37.6554 103.792 37.3988C104.402 37.1422 105.075 37.0139 105.845 37.0139C106.711 37.0139 107.449 37.1101 108.058 37.3667Z" fill="white"/>
<path d="M118.868 38.2006C119.669 38.81 120.086 39.7081 120.086 40.927C120.086 42.1779 119.701 43.108 118.9 43.7495C118.098 44.391 117.039 44.7117 115.692 44.7117H114.473V48.4003H111.843V37.2705H115.436C116.943 37.2705 118.066 37.5912 118.868 38.2006ZM116.911 42.3382C117.232 42.0496 117.392 41.5684 117.392 40.8949C117.392 39.7402 116.751 39.1308 115.436 39.1308H114.505V42.7552H115.468C116.109 42.7873 116.59 42.659 116.911 42.3382Z" fill="white"/>
<path d="M130.094 38.5214C130.992 39.5478 131.409 40.959 131.409 42.8194C131.409 44.0382 131.216 45.0646 130.799 45.9627C130.383 46.8607 129.805 47.5022 129.067 47.9833C128.33 48.4645 127.432 48.689 126.373 48.689C125.347 48.689 124.449 48.4645 123.711 48.0154C122.973 47.5664 122.396 46.8928 121.979 46.0268C121.594 45.1608 121.37 44.1023 121.37 42.8835C121.37 41.6968 121.562 40.6383 121.979 39.7723C122.396 38.9063 122.941 38.2327 123.711 37.7516C124.449 37.2705 125.347 37.046 126.373 37.046C127.977 37.0139 129.196 37.5271 130.094 38.5214ZM124.705 39.8364C124.353 40.4458 124.16 41.4402 124.16 42.8194C124.16 44.1986 124.353 45.1929 124.737 45.8023C125.122 46.4117 125.668 46.7324 126.405 46.7324C127.175 46.7324 127.752 46.4117 128.105 45.8023C128.458 45.1929 128.651 44.1986 128.651 42.8194C128.651 41.4402 128.458 40.4458 128.073 39.8364C127.688 39.227 127.143 38.9384 126.373 38.9384C125.636 38.9384 125.058 39.227 124.705 39.8364Z" fill="white"/>
<path d="M140.678 38.4572C141.737 39.227 142.25 40.6704 142.25 42.7873C142.25 44.84 141.737 46.3155 140.71 47.1494C139.684 47.9833 138.369 48.4003 136.733 48.4003H133.397V37.2705H136.509C138.209 37.2705 139.62 37.6874 140.678 38.4572ZM135.995 39.1949V46.5079H136.861C137.728 46.5079 138.401 46.2513 138.818 45.706C139.267 45.1608 139.492 44.1985 139.492 42.8193C139.492 41.8571 139.363 41.1194 139.139 40.6062C138.914 40.093 138.626 39.7081 138.241 39.5157C137.856 39.3232 137.375 39.227 136.797 39.227H135.995V39.1949Z" fill="white"/>
<path d="M149.916 48.4003L149.339 45.9947H146.099L145.522 48.4003H142.795L146.163 37.2705H149.371L152.738 48.4003H149.916ZM146.548 44.1023H148.89L147.735 39.1949L146.548 44.1023Z" fill="white"/>
<path d="M157.581 44.1344H156.555V48.3682H153.925V37.2384H157.549C159.057 37.2384 160.211 37.5271 160.981 38.0723C161.751 38.6176 162.136 39.4836 162.136 40.6383C162.136 41.3439 161.975 41.9533 161.623 42.4345C161.27 42.9156 160.725 43.3005 160.019 43.6533L162.841 48.4003H159.859L157.581 44.1344ZM156.555 42.3382H157.678C158.255 42.3382 158.704 42.2099 158.993 41.9533C159.281 41.6967 159.442 41.2798 159.442 40.7024C159.442 40.1572 159.281 39.7723 158.96 39.5157C158.64 39.2591 158.159 39.1308 157.517 39.1308H156.555V42.3382Z" fill="white"/>
<path d="M166.851 37.2705V48.4003H164.221V37.2705H166.851V37.2705ZM173.234 37.2705L169.705 42.2741L173.554 48.4003H170.507L166.979 42.4665L170.507 37.2705H173.234V37.2705Z" fill="white"/>
<path d="M177.404 37.2705V48.4003H174.773V37.2705H177.404V37.2705Z" fill="white"/>
<path d="M192.254 38.5214C193.152 39.5478 193.569 40.959 193.569 42.8194C193.569 44.0382 193.377 45.0646 192.96 45.9627C192.543 46.8607 191.965 47.5022 191.228 47.9833C190.49 48.4645 189.592 48.689 188.533 48.689C187.507 48.689 186.609 48.4645 185.871 48.0154C185.134 47.5664 184.556 46.8928 184.139 46.0268C183.754 45.1608 183.53 44.1023 183.53 42.8835C183.53 41.6968 183.722 40.6383 184.139 39.7723C184.556 38.9063 185.101 38.2327 185.871 37.7516C186.609 37.2705 187.507 37.046 188.533 37.046C190.137 37.0139 191.388 37.5271 192.254 38.5214ZM186.866 39.8364C186.481 40.4458 186.32 41.4402 186.32 42.8194C186.32 44.1986 186.513 45.1929 186.898 45.8023C187.282 46.4117 187.828 46.7324 188.565 46.7324C189.335 46.7324 189.913 46.4117 190.265 45.8023C190.65 45.1929 190.811 44.1986 190.811 42.8194C190.811 41.4402 190.618 40.4458 190.233 39.8364C189.848 39.227 189.303 38.9384 188.533 38.9384C187.796 38.9384 187.25 39.227 186.866 39.8364Z" fill="white"/>
<path d="M202.839 38.4572C203.897 39.227 204.41 40.6704 204.41 42.7873C204.41 44.84 203.897 46.3155 202.871 47.1494C201.844 47.9833 200.529 48.4003 198.893 48.4003H195.558V37.2705H198.669C200.401 37.2705 201.78 37.6874 202.839 38.4572ZM198.188 39.1949V46.5079H199.054C199.92 46.5079 200.593 46.2513 201.042 45.706C201.491 45.1608 201.716 44.1985 201.716 42.8193C201.716 41.8571 201.62 41.1194 201.363 40.6062C201.139 40.093 200.85 39.7081 200.465 39.5157C200.08 39.3232 199.599 39.227 199.054 39.227H198.188V39.1949Z" fill="white"/>
<path d="M213.391 38.2006C214.193 38.81 214.61 39.7081 214.61 40.927C214.61 42.1779 214.225 43.108 213.423 43.7495C212.621 44.391 211.563 44.7117 210.216 44.7117H208.997V48.4003H206.367V37.2705H209.959C211.467 37.2705 212.589 37.5912 213.391 38.2006ZM211.434 42.3382C211.755 42.0496 211.916 41.5684 211.916 40.8949C211.916 39.7402 211.274 39.1308 209.959 39.1308H209.029V42.7552H210.023C210.633 42.7873 211.114 42.659 211.434 42.3382Z" fill="white"/>
<path d="M221.313 48.4003L220.736 45.9947H217.497L216.919 48.4003H214.193L217.561 37.2705H220.736L224.104 48.4003H221.313ZM217.946 44.1023H220.287L219.1 39.1949L217.946 44.1023Z" fill="white"/>
<path d="M232.604 38.4572C233.662 39.227 234.175 40.6704 234.175 42.7873C234.175 44.84 233.662 46.3155 232.636 47.1494C231.609 47.9833 230.294 48.4003 228.658 48.4003H225.323V37.2705H228.434C230.166 37.2705 231.545 37.6874 232.604 38.4572ZM227.953 39.1949V46.5079H228.819C229.685 46.5079 230.358 46.2513 230.807 45.706C231.257 45.1608 231.481 44.1985 231.481 42.8193C231.481 41.8571 231.385 41.1194 231.128 40.6062C230.904 40.093 230.615 39.7081 230.23 39.5157C229.845 39.3232 229.364 39.227 228.819 39.227H227.953V39.1949Z" fill="white"/>
<path d="M244.343 38.5214C245.241 39.5478 245.658 40.959 245.658 42.8194C245.658 44.0382 245.465 45.0646 245.049 45.9627C244.632 46.8607 244.054 47.5022 243.317 47.9833C242.579 48.4645 241.681 48.689 240.622 48.689C239.596 48.689 238.698 48.4645 237.96 48.0154C237.222 47.5664 236.645 46.8928 236.228 46.0268C235.843 45.1608 235.619 44.1023 235.619 42.8835C235.619 41.6968 235.811 40.6383 236.228 39.7723C236.645 38.9063 237.19 38.2327 237.96 37.7516C238.698 37.2705 239.596 37.046 240.622 37.046C242.226 37.0139 243.477 37.5271 244.343 38.5214ZM238.954 39.8364C238.569 40.4458 238.409 41.4402 238.409 42.8194C238.409 44.1986 238.602 45.1929 238.986 45.8023C239.371 46.4117 239.917 46.7324 240.654 46.7324C241.424 46.7324 242.001 46.4117 242.354 45.8023C242.739 45.1929 242.9 44.1986 242.9 42.8194C242.9 41.4402 242.707 40.4458 242.322 39.8364C241.937 39.227 241.392 38.9384 240.622 38.9384C239.885 38.9384 239.339 39.227 238.954 39.8364Z" fill="white"/>
<path d="M260.027 37.2705L258.167 48.4003H254.735L253.356 39.9006L251.913 48.4003H248.577L246.749 37.2705H249.379L250.469 46.4117L252.009 37.2705H254.767L256.21 46.4117L257.526 37.2705H260.027V37.2705Z" fill="white"/>
<path d="M268.431 37.2705L268.174 39.1629H264.261V41.825H267.693V43.6854H264.261V46.5079H268.463V48.4003H261.663V37.2705H268.431V37.2705Z" fill="white"/>
<path d="M273.338 46.7004C273.338 47.5984 273.178 48.3041 272.857 48.8814C272.536 49.4588 272.119 49.9078 271.606 50.2285C271.093 50.5493 270.483 50.838 269.746 51.0625L269.04 49.2022C269.521 49.0097 269.874 48.8173 270.098 48.5607C270.323 48.3361 270.483 48.0475 270.58 47.7588C270.676 47.4701 270.708 47.0532 270.708 46.5721V37.2384H273.338V46.7004Z" fill="white"/>
<path d="M82.6877 56.5151V67.6449H80.0576V56.5151H82.6877Z" fill="white"/>
<path d="M93.0159 63.379H91.9895V67.6129H89.3594V56.483H93.0159C94.5234 56.483 95.678 56.7717 96.4478 57.317C97.2176 57.8622 97.6025 58.7283 97.6025 59.8829C97.6025 60.5886 97.4421 61.198 97.0893 61.6791C96.7365 62.1602 96.1912 62.5451 95.4856 62.8979L98.3081 67.6449H95.3573L93.0159 63.379ZM91.9895 61.5829H93.08C93.6573 61.5829 94.1064 61.4546 94.3951 61.198C94.6837 60.9414 94.8441 60.5244 94.8441 59.9471C94.8441 59.4018 94.6837 59.0169 94.363 58.7603C94.0422 58.5037 93.5611 58.3754 92.9196 58.3754H91.9895V61.5829Z" fill="white"/>
<path d="M106.487 56.5151L106.198 58.4075H102.285V61.0697H105.685V62.93H102.285V65.7526H106.455V67.6449H99.6553V56.5151H106.487Z" fill="white"/>
<path d="M114.666 56.5472C115.211 56.7396 115.724 57.0604 116.205 57.4453L114.954 58.9528C114.634 58.6962 114.313 58.5037 113.992 58.3754C113.671 58.2471 113.319 58.183 112.966 58.183C112.228 58.183 111.619 58.5037 111.202 59.1452C110.753 59.7867 110.56 60.7489 110.56 62.064C110.56 63.347 110.785 64.3092 111.202 64.9507C111.619 65.5922 112.228 65.8808 112.998 65.8808C113.415 65.8808 113.768 65.8167 114.088 65.6563C114.409 65.496 114.794 65.2714 115.179 64.9828L116.334 66.4903C115.917 66.9072 115.403 67.26 114.826 67.5166C114.249 67.7732 113.575 67.9015 112.87 67.9015C111.843 67.9015 110.945 67.677 110.207 67.228C109.438 66.7789 108.86 66.1054 108.443 65.2393C108.026 64.3413 107.802 63.2828 107.802 62.064C107.802 60.8452 108.026 59.8188 108.443 58.9207C108.892 58.0547 109.47 57.3811 110.239 56.9321C111.009 56.483 111.875 56.2585 112.837 56.2585C113.511 56.2585 114.12 56.3547 114.666 56.5472Z" fill="white"/>
<path d="M126.181 56.5151L122.621 63.4753V67.6449H119.99V63.4753L116.43 56.5151H119.285L121.338 61.3904L123.39 56.5151H126.181Z" fill="white"/>
<path d="M130.158 56.5151V67.6449H127.528V56.5151H130.158ZM136.541 56.5151L133.013 61.5187L136.861 67.6449H133.814L130.286 61.7112L133.814 56.5151H136.541V56.5151Z" fill="white"/>
<path d="M140.71 56.5151V65.5601H145.04L144.752 67.6449H138.08V56.5151H140.71Z" fill="white"/>
<path d="M149.339 56.5151V67.6449H146.708V56.5151H149.339Z" fill="white"/>
<path d="M160.372 67.6449H157.004L153.797 59.049C153.893 59.8829 153.989 60.6527 154.053 61.2942C154.117 61.9357 154.15 62.7055 154.15 63.6036V67.677H151.808V56.5472H155.08L158.351 65.1752C158.127 63.6998 157.998 62.3206 157.998 61.0376V56.5472H160.372V67.6449Z" fill="white"/>
<path d="M171.341 57.6056L170.026 58.9848C169.641 58.6962 169.257 58.4716 168.936 58.3434C168.615 58.2151 168.198 58.1509 167.781 58.1509C166.947 58.1509 166.306 58.4717 165.825 59.1131C165.343 59.7546 165.087 60.7489 165.087 62.064C165.087 63.4753 165.279 64.5016 165.664 65.079C166.049 65.6563 166.626 65.9771 167.396 65.9771C167.941 65.9771 168.455 65.8488 168.904 65.6242V63.0904H167.46L167.204 61.23H171.406V66.7469C170.828 67.1317 170.187 67.4204 169.481 67.6129C168.775 67.8053 168.102 67.9015 167.396 67.9015C165.696 67.9015 164.445 67.4204 163.579 66.4261C162.713 65.4318 162.296 63.9884 162.296 62.064C162.296 60.8452 162.521 59.7867 163.002 58.9207C163.483 58.0547 164.093 57.3811 164.926 56.9321C165.728 56.483 166.626 56.2585 167.653 56.2585C169.096 56.2585 170.315 56.7076 171.341 57.6056Z" fill="white"/>
<path d="M182.086 63.9564C182.086 64.7262 181.926 65.3997 181.605 65.9771C181.284 66.5865 180.803 67.0355 180.13 67.3883C179.488 67.7412 178.686 67.9015 177.724 67.9015C176.313 67.9015 175.222 67.5487 174.517 66.8431C173.779 66.1374 173.394 65.1752 173.394 63.9564V56.5151H176.024V63.8281C176.024 64.5337 176.152 65.079 176.441 65.4318C176.73 65.7846 177.147 65.945 177.724 65.945C178.334 65.945 178.75 65.7846 179.039 65.4318C179.296 65.079 179.456 64.5658 179.456 63.8281V56.5151H182.086V63.9564Z" fill="white"/>
<defs>
<linearGradient id="paint0_linear_404_3587" x1="2.64197e-08" y1="59.498" x2="69.1075" y2="60.2935" gradientUnits="userSpaceOnUse">
<stop stop-color="#08AEEA"/>
<stop offset="1" stop-color="#23C878"/>
</linearGradient>
</defs>
</svg>
