<svg xmlns="http://www.w3.org/2000/svg" width="95.679" height="98.636"><defs><clipPath id="a"><path data-name="Path 234" d="M0 87.566h94.634v-98.635H0Z" transform="translate(0 11.069)" fill="#fffaf4"/></clipPath></defs><g data-name="Group 909"><g data-name="Group 329"><path data-name="Path 225" d="m54.054 79.38-2.869 7.556-3.048-7.556h-2.61l-3.066 7.556-2.887-7.556h-4.4l6.182 13.955h2l3.475-7.45 3.4 7.45h2.06l6.174-13.955Z" fill="#fffaf4"/></g><g data-name="Group 337" transform="translate(1.045)" clip-path="url(#a)"><g data-name="Group 330"><path data-name="Path 226" d="M61.609 77.304a2.235 2.235 0 0 0 1.675-.7 2.291 2.291 0 0 0 .7-1.675 2.3 2.3 0 0 0-.695-1.697 2.286 2.286 0 0 0-1.68-.686 2.3 2.3 0 0 0-1.662.686 2.3 2.3 0 0 0-.7 1.693 2.291 2.291 0 0 0 .7 1.675 2.243 2.243 0 0 0 1.666.7" fill="#fffaf4"/></g><g data-name="Group 331"><path data-name="Path 227" d="M67.315 88.209a4.99 4.99 0 0 0 1.39 3.823 5.527 5.527 0 0 0 3.93 1.318 10.371 10.371 0 0 0 3.983-.864v-3.119a6.478 6.478 0 0 1-2.887.8 2.028 2.028 0 0 1-1.551-.6 2.239 2.239 0 0 1-.552-1.6v-5.64h4.99v-2.949h-4.99v-4.313h-.543l-5.73 6.416v.847h1.96Z" fill="#fffaf4"/></g><g data-name="Group 332"><path data-name="Path 228" d="M79.496 88.209a4.99 4.99 0 0 0 1.39 3.823 5.527 5.527 0 0 0 3.93 1.318 10.371 10.371 0 0 0 3.983-.864v-3.119a6.478 6.478 0 0 1-2.887.8 2.028 2.028 0 0 1-1.551-.6 2.239 2.239 0 0 1-.552-1.6v-5.64h4.99v-2.949h-4.99v-4.313h-.543l-5.73 6.416v.847h1.96Z" fill="#fffaf4"/></g><g data-name="Group 333"><path data-name="Path 229" d="M89.47 57.911a.881.881 0 0 0 .6-.232.794.794 0 0 0 .241-.579 2.052 2.052 0 0 0-.6-1.372h-1.907a7 7 0 0 0 .775 1.72 1.091 1.091 0 0 0 .891.463" fill="#fffaf4"/></g><g data-name="Group 334"><path data-name="Path 230" d="M87.617 38.121c-1.728 0-2.575.6-2.575 1.791a1.563 1.563 0 0 0 .677 1.337 3.327 3.327 0 0 0 1.943.481c1.769 0 2.646-.609 2.646-1.818 0-1.191-.891-1.791-2.691-1.791" fill="#fffaf4"/></g><g data-name="Group 335"><path data-name="Path 231" d="M87.8 12.795a6.627 6.627 0 0 0 .784 1.72 1.075 1.075 0 0 0 .882.463.85.85 0 0 0 .6-.232.794.794 0 0 0 .234-.579 2.082 2.082 0 0 0-.584-1.372Z" fill="#fffaf4"/></g><path data-name="Path 232" d="M0 98.635h94.634V0H0ZM0 0l89.689 8.956h1.381a4.743 4.743 0 0 1 .722 2.334c0 .775-.3 1.248-.891 1.39a4.6 4.6 0 0 1 .891 2.6 2.266 2.266 0 0 1-.592 1.571 1.763 1.763 0 0 1-1.354.651 2.183 2.183 0 0 1-1.675-.677 13.083 13.083 0 0 1-1.631-4.028c-.882-.053-1.319.4-1.319 1.372a4.078 4.078 0 0 0 1.319 2.923h-2.028a6.493 6.493 0 0 1-.962-3.431q0-3.355 2.406-3.351h3.618c.374 0 .552-.143.552-.419a1.948 1.948 0 0 0-.437-.936m1.943 25.708h-11.71v-2.486h11.709Zm-7.914-6.754h7.913v2.486h-7.913Zm0 2.486 8.064 9.517a4.555 4.555 0 0 1-1.141 3.217 3.851 3.851 0 0 1-2.976 1.265 3.769 3.769 0 0 1-2.985-1.292 4.613 4.613 0 0 1-1.132-3.19 4.762 4.762 0 0 1 1.1-3.163 3.741 3.741 0 0 1 3.039-1.292 3.677 3.677 0 0 1 3.03 1.319 4.831 4.831 0 0 1 1.069 3.137m-7.5 4.375 2.192.686a3.087 3.087 0 0 0-.579 1.479 1.7 1.7 0 0 0 1.069 1.452 5.615 5.615 0 0 0 1.248.588h3.422v2.5h-7.92v-2.5h2.263v-.036c-1.613-.713-2.433-1.559-2.433-2.522a2.916 2.916 0 0 1 .731-1.649m1.675 8.956h3.618c.374 0 .552-.143.552-.419a1.948 1.948 0 0 0-.437-.936h1.383a4.743 4.743 0 0 1 .722 2.335c0 .775-.3 1.248-.891 1.39a4.6 4.6 0 0 1 .891 2.6 2.3 2.3 0 0 1-.588 1.577 1.782 1.782 0 0 1-1.354.642 2.208 2.208 0 0 1-1.675-.668 13.29 13.29 0 0 1-1.631-4.037c-.882-.053-1.319.4-1.319 1.372a4.078 4.078 0 0 0 1.319 2.923h-2.032a6.493 6.493 0 0 1-.962-3.431q0-3.355 2.406-3.351m-1.88 8.252h1.853a4.376 4.376 0 0 0-.535 2.023 2.507 2.507 0 0 0 .624 1.791 2.181 2.181 0 0 0 1.666.677 2.31 2.31 0 0 0 1.693-.659 2.362 2.362 0 0 0 .642-1.72 7.015 7.015 0 0 0-.544-2.228h1.782a7.779 7.779 0 0 1 .535 2.673 4.832 4.832 0 0 1-1.123 3.333 3.793 3.793 0 0 1-2.976 1.256 3.855 3.855 0 0 1-2.967-1.265 4.544 4.544 0 0 1-1.176-3.217 7.72 7.72 0 0 1 .526-2.664m.267-42.461a2.981 2.981 0 0 1 2.263-.829h5.026v2.49h-4.821c-1.06 0-1.6.419-1.6 1.239 0 .588.446 1.167 1.319 1.738h5.1v2.486h-7.912v-2.485h1.123a3.289 3.289 0 0 1-1.292-2.575 2.859 2.859 0 0 1 .793-2.058m-1.827 10.133a1.373 1.373 0 0 1-2.745 0 1.29 1.29 0 0 1 .4-.971 1.377 1.377 0 0 1 1.943 0 1.29 1.29 0 0 1 .4.971M2.852 2.709h78.639v6.16H65.549v20.234a30.416 30.416 0 0 0-13.509-3.27q-11.041 0-18.1 7.485t-7.056 19.274a28.231 28.231 0 0 0 4.545 16.093H2.852Zm62.7 36.98v24.6q-4.678 4.251-9.668 4.251a11.006 11.006 0 0 1-9.066-4.271q-3.408-4.277-3.4-11.37 0-7.7 3.431-11.95a11.637 11.637 0 0 1 9.588-4.259 16.166 16.166 0 0 1 9.116 3m26.239 56.147H2.86v-25.2h88.932ZM91.2 8.305h-1.743a6.628 6.628 0 0 0 .668-2.549c0-.811-.2-1.212-.579-1.212a.6.6 0 0 0-.437.223 6.8 6.8 0 0 0-.7 1.506 4.1 4.1 0 0 1-1.1 1.738A2.081 2.081 0 0 1 86 8.483a2.148 2.148 0 0 1-1.773-.909 3.892 3.892 0 0 1-.668-2.37 5.547 5.547 0 0 1 .579-2.566h1.773a5.1 5.1 0 0 0-.873 2.647c0 .6.2.891.606.891a.413.413 0 0 0 .321-.187 8.183 8.183 0 0 0 .65-1.444 4.372 4.372 0 0 1 1.158-1.782 2.26 2.26 0 0 1 1.444-.517 2.273 2.273 0 0 1 1.9.847 3.667 3.667 0 0 1 .677 2.388 6.481 6.481 0 0 1-.594 2.824" fill="#fffaf4"/><g data-name="Group 336"><path data-name="Path 233" d="M24.082 91.403a8.337 8.337 0 0 0 5.778 1.943 10.136 10.136 0 0 0 6.113-1.8v-2.718a8.646 8.646 0 0 1-5.079 1.96 4.872 4.872 0 0 1-3.2-1 3.978 3.978 0 0 1-1.322-2.876h9.847a7.5 7.5 0 0 0-1.9-5.694 6.858 6.858 0 0 0-5.2-2.13 7.06 7.06 0 0 0-5.17 2.023 6.99 6.99 0 0 0-2.032 5.15 6.56 6.56 0 0 0 2.165 5.142m5.356-9.749c1.747 0 2.745 1 2.976 2.994H26.46q.321-2.994 2.976-2.994" fill="#fffaf4"/></g></g><path data-name="Path 235" d="M59.472 93.084h4.313V79.379h-4.313Z" fill="#fffaf4"/><g data-name="Group 339" clip-path="url(#a)"><g data-name="Group 338"><path data-name="Path 236" d="M12.491 93.347a5.813 5.813 0 0 0 3.8-1.363v1.1h4.313V72.812h-4.313v7.142a8.08 8.08 0 0 0-3.573-.864 6.285 6.285 0 0 0-4.776 1.986 7.194 7.194 0 0 0-1.871 5.136 7.286 7.286 0 0 0 1.845 5.1 5.908 5.908 0 0 0 4.575 2.035m-1.136-10.235a3.049 3.049 0 0 1 2.531-1.136 4.2 4.2 0 0 1 2.406.8v6.541a3.735 3.735 0 0 1-2.557 1.132 2.886 2.886 0 0 1-2.389-1.137 4.675 4.675 0 0 1-.9-3.021 4.918 4.918 0 0 1 .909-3.179" fill="#fffaf4"/></g></g></g></svg>