<svg width="70" height="80" viewBox="0 0 70 80" fill="none" xmlns="http://www.w3.org/2000/svg">
<path d="M34.6404 0L0 19.9984V59.9984L33.3574 79.2591L34.6404 80L35.9233 79.2591V19.3665L41.9854 15.864H41.9886L59.2158 25.8103V54.1865L41.0553 64.6716L38.4893 66.1535V77.7772L41.0553 76.2954L69.2807 59.9984V19.9984L34.6404 0ZM33.3574 67.6353L10.0682 54.1865V40.3207L16.5472 44.0606L19.1131 45.5425L33.3574 53.7663V67.6353ZM33.3574 50.8027L21.6791 44.0606L19.1131 42.5788L12.6309 38.8357L10.0682 37.3571V25.8103L12.6341 24.3284L12.7143 24.2803L16.5472 26.4935L19.1131 27.9753L25.5922 31.7152L28.1581 33.197L33.3574 36.1992V50.8027ZM33.3574 33.2355L30.7273 31.7152L28.1645 30.2333L21.6855 26.4935L19.1196 25.0116L15.2899 22.7985L19.1196 20.5886L21.6855 19.1067L27.3017 15.864L33.3638 19.3665V33.2355H33.3574ZM35.9233 16.4029L34.6404 17.1438L33.3574 16.4029L29.8613 14.3822L33.3574 12.3647L34.6404 11.6238L35.9233 12.3647L39.4195 14.3822L35.9233 16.4029ZM66.7148 58.5166L41.0553 73.3317V67.6353L61.7817 55.6684V24.3284L44.5546 14.3822L34.6404 8.66009L24.7294 14.3822L12.7175 21.3167L10.1483 22.8017L7.50221 24.3284H7.499V55.6684H7.50221L10.065 57.147L33.3574 70.599V76.2954L2.56595 58.5166V21.4802L34.6404 2.96368L66.7148 21.4802V58.5166Z" fill="url(#paint0_linear_727_2251)"/>
<defs>
<linearGradient id="paint0_linear_727_2251" x1="5.8833" y1="59.1722" x2="57.8314" y2="33.196" gradientUnits="userSpaceOnUse">
<stop stop-color="#08AEEA"/>
<stop offset="1" stop-color="#23C878"/>
</linearGradient>
</defs>
</svg>
