<svg width="177" height="55" viewBox="0 0 177 55" fill="none" xmlns="http://www.w3.org/2000/svg">
<path d="M121.993 35.502C121.529 35.4344 120.719 35.198 120.14 34.9728C119.561 34.7476 118.968 34.6913 118.968 34.6913C118.968 34.6913 118.997 34.331 117.954 34.3648C116.912 34.3986 115.002 35.502 114.09 35.7947C113.772 35.896 113.178 36.0536 112.44 36.2225C110.472 36.6616 108.315 36.7404 107.562 36.504C107.027 36.3351 106.072 36.0649 105.536 35.9185L105.247 35.8172C105.348 35.6371 105.551 35.4119 105.768 35.198C106.158 34.8152 107.403 34.3423 107.982 34.1509C108.547 33.9708 109.56 33.8244 109.777 33.6105C109.994 33.4078 109.733 33.2952 109.936 33.1827C110.139 33.0701 110.168 32.9575 110.124 32.7773C110.095 32.5972 109.893 32.1356 109.647 31.7303C109.401 31.325 108.908 29.9401 108.764 29.5461C108.619 29.1633 108.532 29.062 108.344 29.1295C108.141 29.1858 107.982 29.2759 107.982 29.5461C107.982 29.805 108.083 30.5706 108.083 30.5706C108.083 30.5706 107.852 30.4243 107.62 30.3004C107.389 30.1878 107.157 30.0752 106.998 30.1315C106.839 30.1878 106.708 30.3117 106.752 30.5594C106.795 30.8071 107.041 31.4038 107.041 31.4038C107.041 31.4038 106.622 31.2912 106.129 31.1899C105.637 31.0885 105.493 31.1448 105.449 31.2574C105.42 31.37 105.854 31.6627 105.927 31.7528C105.999 31.8429 105.811 31.7978 105.811 31.7978L104.61 31.6965C104.61 31.6965 104.262 31.6627 104.045 31.6965C103.843 31.7415 103.843 31.8879 103.843 31.8879C103.843 31.8879 103.741 31.8541 103.495 31.8879C103.249 31.9217 103.336 32.068 103.336 32.068C103.336 32.068 103.22 32.0568 103.047 32.1018C102.873 32.1469 102.815 32.2932 102.815 32.2932C102.815 32.2932 102.598 32.2369 102.453 32.2932C102.308 32.3383 102.337 32.5071 102.337 32.5071C102.337 32.5071 102.294 32.4846 102.048 32.5409C101.802 32.5972 101.787 32.7436 101.787 32.7436C101.787 32.7436 99.3123 33.5204 99.0663 33.588C98.7334 33.7118 98.8926 34.0158 98.8926 34.0158C98.5887 34.4436 98.7913 34.5675 98.7913 34.5675C98.4729 34.849 98.5308 35.0516 98.6031 35.1417C98.4874 35.0178 98.4873 35.1529 98.5163 35.4006C98.5163 35.4682 98.5163 35.5357 98.5452 35.5808C98.5742 35.7497 98.6176 35.9185 98.6466 36.0874C98.2702 34.7138 97.6913 33.1827 97.6045 32.0568C97.4887 30.458 98.5163 30.0189 96.3452 28.15C95.3321 27.2831 92.5242 24.3558 92.2781 24.0856C92.2058 24.018 92.1479 23.9392 92.061 23.8717C92.0321 23.8379 92.0031 23.8154 91.9887 23.7929C91.9308 23.7253 91.8584 23.6803 91.786 23.624C91.6992 23.5564 91.6123 23.4889 91.5255 23.4213V23.3763C91.5255 23.3763 91.4387 23.3312 91.3084 23.2524C90.7295 22.8471 90.1795 22.5657 90.1795 22.5657C90.1795 22.5657 90.0492 22.5094 89.89 22.4418C89.0939 21.9915 88.24 21.5073 87.9939 21.3722C87.4729 21.0795 87.14 20.9106 87.0242 20.9782C86.7781 21.102 88.24 22.1716 88.6163 22.4756C88.6452 22.4981 88.6742 22.5206 88.7031 22.5431C88.761 22.6445 88.8189 22.7571 88.8913 22.8696C88.7176 22.7796 88.515 22.6782 88.3123 22.5882C87.7044 22.2842 87.0966 22.0027 86.3873 21.7888C86.1847 21.7325 86.011 21.6762 85.9097 21.665C85.6781 21.6199 85.2729 21.6199 85.7794 21.9352C85.9821 22.059 86.5176 22.3517 87.0966 22.667C86.2571 22.4531 85.4466 22.2166 85.4466 22.2166C85.4466 22.2166 83.7821 22.0703 83.84 22.2166C83.8979 22.363 87.3571 22.9372 87.2992 22.9372C87.2413 22.9485 82.0163 22.5431 81.8281 22.5544C81.64 22.5769 80.0334 22.7571 80.1347 22.8696C80.2071 22.9485 83.8979 23.0948 86.0979 23.2524C86.1413 23.2637 86.1702 23.275 86.2137 23.2975C84.2308 23.2524 79.8597 23.275 77.7321 23.5226C77.515 23.5789 77.9492 23.8154 82.0308 23.714C82.19 23.714 86.5755 23.5564 87.2413 23.6915C87.2702 23.6915 87.2992 23.6915 87.3281 23.7028C87.6466 23.8154 87.965 23.9392 88.2689 24.0518C88.5295 24.3558 88.6452 24.7273 88.6742 24.9075C88.6018 24.975 88.5584 25.0538 88.5584 25.1552C88.5584 25.3353 88.7031 25.4817 88.9058 25.538C88.8334 25.6055 88.79 25.6956 88.79 25.7857C88.79 25.9433 88.9058 26.0784 89.0795 26.1459C89.036 26.2022 89.0071 26.2698 89.0071 26.3486C89.0071 26.54 89.1663 26.6864 89.3834 26.7427C89.2531 26.8215 89.1663 26.934 89.1663 27.0692C89.1663 27.238 89.2966 27.3844 89.4847 27.452C89.4847 27.4745 89.4702 27.5082 89.4702 27.5308C89.4702 27.6996 89.586 27.8235 89.7742 27.9023C89.7452 27.9248 89.7308 27.9473 89.7163 27.9699C89.6295 27.9924 89.6294 28.0487 89.6584 28.1162C89.6584 28.1387 89.6584 28.15 89.6584 28.1725C89.6584 28.3189 89.7597 28.4315 89.9045 28.5103C89.7308 28.5778 89.6005 28.7242 89.6005 28.8818C89.6005 29.0394 89.7308 29.1971 89.9045 29.2646C89.9045 29.2646 89.9045 29.2759 89.9045 29.2871C89.9045 29.3322 89.8755 29.3772 89.8755 29.4222C89.8755 29.5236 89.9334 29.6249 90.0202 29.6924C89.8031 29.7487 89.6584 29.8951 89.6584 30.0865C89.6584 30.109 89.6584 30.1203 89.6584 30.1315C89.3689 30.1315 89.1229 30.3117 89.1229 30.5481C89.1229 30.6157 89.1518 30.672 89.1808 30.7282C89.1518 30.7508 89.1229 30.762 89.0939 30.7845C88.8913 30.8183 88.7321 30.9422 88.6742 31.0998C88.6742 31.0998 88.6308 31.1561 88.6742 31.1786C88.6742 31.415 88.9058 31.6064 89.2097 31.6064C89.2242 31.6064 89.2531 31.6064 89.2676 31.6064C89.2531 31.6515 89.2387 31.6852 89.2387 31.7415C89.2387 31.9217 89.3834 32.068 89.586 32.1243C89.5137 32.1694 89.5426 32.2482 89.586 32.3383C89.4847 32.4171 89.4268 32.5184 89.4268 32.631C89.4268 32.7661 89.5137 32.8787 89.6294 32.9575C89.4847 33.0363 89.3834 33.1489 89.3834 33.2952C89.3834 33.4303 89.4702 33.5429 89.6005 33.6217C89.4847 33.7006 89.4123 33.8019 89.4123 33.937C89.4123 34.1171 89.5571 34.2748 89.7742 34.3198C89.6729 34.3986 89.6005 34.4999 89.6005 34.6238C89.6005 34.8264 89.8031 34.9953 90.0492 35.0291C90.0202 35.0854 89.9913 35.1417 89.9913 35.2092C89.9913 35.3781 90.136 35.5357 90.3242 35.592C90.3821 35.6708 90.44 35.7384 90.4689 35.7722C90.3821 35.851 90.3242 35.941 90.3242 36.0536C90.3242 36.2563 90.5123 36.4139 90.7584 36.459C90.6137 36.5715 90.5123 36.7292 90.5123 36.898C90.5123 37.1007 90.6426 37.2808 90.8452 37.3934C90.7873 37.6299 90.9321 37.7537 90.9321 37.7537C90.7439 37.9226 90.686 38.0577 90.686 38.159L88.8189 38.9922C88.0663 39.2399 87.5163 39.4313 87.5452 39.465C87.6466 39.5664 87.661 39.465 87.6466 39.5664C87.6321 39.6677 86.9952 40.028 87.2847 40.0392C87.5742 40.0392 88.0663 40.0055 88.0663 40.0055C88.0663 40.0055 86.9808 40.3657 87.0966 40.4558C87.2123 40.5459 86.9663 40.5909 86.9663 40.5909C85.0123 41.4691 86.4452 41.2101 87.0676 41.0187C87.0387 41.0638 86.4308 41.8519 86.7058 41.8632C86.9808 41.8632 87.5742 41.5029 87.5742 41.5029C87.5742 41.5029 86.8071 42.3022 87.4295 42.595C88.0518 42.032 88.4426 41.8069 88.515 41.7618C88.8479 41.7168 89.0795 41.5817 89.4123 41.5479C89.861 41.5029 91.2071 41.4128 91.9597 41.5479C92.7123 41.6943 95.1729 42.0883 97.2137 41.7843C99.2545 41.4804 103.09 40.0955 103.987 39.7015C104.87 39.2962 106.491 38.7895 107.751 38.418C109.111 38.0239 111.354 37.7537 112.599 37.3146C112.845 37.2471 113.062 37.1908 113.25 37.1345C114.814 36.7066 116.782 36.5152 117.766 36.459C118.751 36.4027 119.532 36.1099 119.532 36.1099C120.154 36.0199 122.195 35.9973 122.398 35.8735C122.6 35.7497 122.441 35.547 121.978 35.4907L121.993 35.502ZM89.036 23.7366L89.1373 23.7816C89.1373 23.7816 89.0939 23.7703 89.036 23.7366ZM118.027 35.1417C117.781 35.1642 117.564 35.0854 117.549 34.9615C117.535 34.849 117.723 34.7364 117.969 34.7251C118.215 34.7026 118.432 34.7814 118.447 34.894C118.447 35.0066 118.273 35.1192 118.027 35.1304V35.1417Z" fill="white"/>
<path d="M83.5648 43.0341C83.5648 43.0341 83.1016 42.3698 81.9871 42.3698C80.2503 42.3698 79.9174 42.8652 77.8477 43.2142C76.5885 43.4394 75.7345 43.3493 75.7345 43.3493L74.3306 42.3811L73.4187 42.1671C72.7819 41.1989 72.1885 40.5008 72.0437 40.5571C71.9424 40.6022 72.0727 40.9962 72.3621 41.5592C71.7832 40.7598 71.3056 40.2194 71.1898 40.2644C71.074 40.3094 71.3056 40.8499 71.7253 41.6042C70.7556 40.5571 70.0029 39.8591 69.8727 39.9154C69.8727 39.9154 69.8727 39.9266 69.8727 39.9379C69.0187 39.2061 68.3963 38.7557 68.3095 38.812C68.2082 38.8683 68.6858 39.4425 69.4674 40.2531C68.6279 39.5326 68.02 39.0822 67.9187 39.1385C67.8174 39.2061 68.4108 39.9266 69.3806 40.8949C69.3661 40.8949 69.3371 40.8836 69.3227 40.8724C68.3095 39.9717 67.5279 39.375 67.4266 39.4425C67.3687 39.4763 67.4845 39.6564 67.7306 39.9492C67.6003 39.8816 67.3832 39.8253 67.1227 39.7578C67.0213 39.679 66.9345 39.6001 66.8477 39.5438C65.6319 38.2378 64.5608 37.3259 64.3437 37.4385C64.2135 37.506 64.3871 37.8776 64.7779 38.4405C63.8661 37.4497 63.1135 36.8192 62.9253 36.9093C62.8385 36.9543 62.8963 37.157 63.0556 37.4722C63.0411 37.4497 63.0121 37.4272 62.9977 37.4047L62.8385 37.4385C62.6937 37.2133 62.5635 37.0219 62.4621 36.8868C61.97 36.2 60.6529 29.9514 60.5371 29.7938C60.4213 29.6361 60.2042 30.5931 60.1753 30.8634C60.3345 32.4508 61.1016 35.4457 61.695 36.7517C60.6674 34.7364 59.9582 32.676 59.77 32.6197C59.524 32.5409 59.5385 33.2727 59.5674 33.4866C59.5963 33.7006 61.0727 37.1683 61.0727 37.2358C61.0727 37.3034 59.6108 34.2522 59.3358 34.1959C58.4529 34.0158 60.6819 37.4835 60.6819 37.4835C60.6819 37.4835 59.2345 36.3576 59.22 36.7066C59.22 37.0444 59.9727 37.9001 59.9727 37.9001C59.9727 37.9001 59.3503 37.506 58.9885 37.5398C58.8292 37.5623 58.9885 37.81 59.22 38.0802L58.9306 38.1365C58.9306 38.1365 58.8003 38.3279 58.9595 38.4743C59.1187 38.6206 59.3213 38.6094 59.3213 38.6094C59.3213 38.6094 59.3213 38.722 59.3937 38.9922C59.4516 39.2624 60.3924 39.5664 60.3924 39.5664C60.3924 39.5664 60.3635 39.6564 60.3056 39.8591C60.2621 40.0618 60.6385 40.0167 60.6385 40.0167V40.1631C60.6674 40.3094 61.0292 40.2982 61.0292 40.2982C61.0292 40.2982 61.0292 40.4108 61.0582 40.5797C61.0582 40.7485 61.4635 40.6585 61.4635 40.6585C61.4635 40.6585 61.4635 40.7936 61.4635 40.9625C61.4635 41.1313 61.8398 41.1088 61.8398 41.1088L61.8687 41.2552C61.8977 41.4015 62.2161 41.3115 62.2161 41.3115V41.5141C62.245 41.7168 62.549 41.7168 62.549 41.7168V41.8519C62.5635 41.987 62.9398 42.0546 62.9398 42.0546V42.2234C62.9253 42.3923 63.2437 42.3811 63.2437 42.3811V42.5049C63.2582 42.6175 63.5911 42.685 63.5911 42.685L63.6345 42.8877C63.6635 43.0904 63.9819 42.9552 63.9819 42.9552C63.9819 42.9552 63.9819 43.0341 63.9963 43.2029C64.0108 43.3718 64.4595 43.3155 64.4595 43.3155L64.5029 43.5407C64.5463 43.7546 64.9806 43.597 64.9806 43.597C64.9806 43.597 65.0095 43.6983 65.024 43.901C65.0384 44.1036 65.545 43.9235 65.545 43.9235C65.545 43.9235 65.545 44.0248 65.5016 44.2275C65.4727 44.4301 65.9358 44.295 65.9358 44.295C66.0082 44.6441 66.3266 44.4977 66.3266 44.4977C66.4135 44.8805 66.6595 44.8017 66.6595 44.8017C66.4135 45.0494 66.4569 45.3646 66.4569 45.3646C66.2542 45.5785 66.2542 45.8487 66.2542 45.8487C64.3003 46.3441 62.4766 46.9971 62.3898 47.1998C62.3029 47.4025 62.7806 47.4475 62.7806 47.4475L62.5779 47.6614C62.3753 47.8753 63.0121 47.9767 63.0121 47.9767C63.0121 47.9767 62.9832 48.0667 63.0121 48.2469C63.0411 48.427 63.5332 48.3032 63.5332 48.3032C63.5332 48.3032 63.5042 48.5283 63.895 48.472C64.2858 48.4157 65.6608 48.2356 65.6608 48.2356C65.6608 48.2356 66.1385 48.2806 66.4279 48.2356C66.7029 48.1906 66.8766 47.8416 67.1516 47.729C67.4266 47.6164 68.2227 47.7064 69.67 47.5939C71.1174 47.47 72.3766 47.1773 73.4187 46.817C74.4608 46.468 75.2569 45.6573 76.1398 45.3196C77.0227 44.9706 77.8766 44.5202 78.4121 44.3176C78.9477 44.1036 80.2937 44.1262 81.3069 44.1262C82.32 44.1262 83.0292 43.8447 83.0292 43.8447C83.0292 43.8447 84.9253 43.6871 84.9108 43.5407C84.9108 43.3943 83.5358 43.0003 83.5358 43.0003L83.5648 43.0341ZM82.3345 43.0678C82.1463 43.0678 81.9871 43.0003 81.9871 42.9102C81.9871 42.8201 82.1463 42.7526 82.3345 42.7526C82.5227 42.7526 82.6819 42.8201 82.6819 42.9102C82.6819 43.0003 82.5227 43.0678 82.3345 43.0678Z" fill="white"/>
<path d="M75.0254 21.1808C75.0254 21.1808 74.6925 20.5166 73.6359 20.3927C72.5793 20.2689 71.4214 20.6291 70.1912 20.6742C68.9609 20.7192 68.107 20.4265 68.107 20.4265C68.107 19.6271 68.9899 18.8503 70.4662 17.8933C71.7688 17.0601 72.7241 15.8667 72.9991 15.0786L73.0714 15.0561C73.0859 14.8872 73.1004 14.662 73.1004 14.4143C73.1293 13.8964 73.1004 13.2434 73.0135 12.8156C72.9701 12.4103 72.9122 12.0275 72.8543 11.7347C72.7964 11.5884 72.507 11.1042 72.478 11.2056C72.478 11.2393 72.5214 11.7685 72.5793 12.4328C72.4635 12.5341 72.4491 12.7705 72.4201 13.007C72.3767 12.7368 72.3188 12.4891 72.2754 12.2977C72.203 12.1626 71.8991 11.6784 71.8701 11.7798C71.8701 11.8248 71.9859 12.703 72.1017 13.6262C72.0583 13.66 72.0149 13.705 71.957 13.7501C71.957 13.5474 71.928 13.356 71.8991 13.1984C71.8412 13.052 71.6096 12.5566 71.5662 12.6467C71.5662 12.6805 71.5662 13.2997 71.5662 14.0428C71.3491 14.1891 71.0885 14.358 70.7701 14.5719C69.6991 15.2587 68.382 15.8217 67.2385 16.4859C66.0951 17.1502 65.3714 17.7019 65.328 18.2423C65.2846 18.794 64.8214 19.2894 64.8214 19.2894L64.6622 19.2668C64.6622 19.2668 63.6057 18.3098 63.0557 17.8482C62.5201 17.3866 61.3478 16.3058 60.682 15.7541C60.0306 15.2024 58.4964 13.9414 57.6859 13.401C57.3675 13.1871 56.832 12.8268 56.253 12.444C54.9793 11.2393 51.5491 7.1862 51.4043 7.07361C51.2306 6.96102 51.4478 7.90676 51.5491 8.16571C52.0122 8.95382 53.0254 10.0009 54.0241 10.9579C54.6175 11.5659 55.1241 12.0838 55.1675 12.1626C55.2688 12.3652 51.1583 8.68361 50.9122 8.63858C50.6662 8.59354 50.7675 8.85249 50.8254 9.05515C50.8978 9.24655 51.9543 10.2824 51.9688 10.3499C51.9688 10.4175 50.2609 9.25781 49.9859 9.28033C49.7109 9.29158 50.6517 10.5075 50.6517 10.5075C50.6517 10.5075 50.6517 10.6201 50.6951 10.9466C50.753 11.2731 51.853 12.0049 51.853 12.0049C51.853 12.0049 51.2017 11.6897 50.8543 11.7685C50.5214 11.8473 51.4478 12.7931 51.4478 12.7931C51.303 12.9845 51.882 13.2884 51.882 13.2884C51.6649 13.6149 52.4899 14.1666 52.4899 14.1666C52.4899 14.1666 52.3307 14.3355 52.4609 14.4931C52.5912 14.6508 52.7793 14.662 52.7793 14.662C52.7793 14.662 52.7793 14.7746 52.7793 15.0335C52.7793 15.2925 53.6333 15.6866 53.6333 15.6866C53.6333 15.6866 53.5899 15.7654 53.503 15.9568C53.4306 16.1482 53.807 16.1369 53.807 16.1369V16.2833C53.778 16.4296 54.1254 16.4522 54.1254 16.4522C54.1254 16.4522 54.1254 16.5647 54.0964 16.7224C54.0964 16.88 54.4583 16.8462 54.4583 16.8462C54.4583 16.8462 54.4583 16.9701 54.4149 17.1277C54.3859 17.2853 54.7478 17.3078 54.7478 17.3078V17.4542C54.7478 17.6005 55.0806 17.533 55.0806 17.533V17.7244C55.0372 17.9158 55.3412 17.9496 55.3412 17.9496V18.0734C55.3122 18.1973 55.6596 18.2986 55.6596 18.2986L55.6162 18.4562C55.5872 18.6138 55.8912 18.6363 55.8912 18.6363V18.7489C55.8767 18.8615 56.1807 18.9629 56.1807 18.9629V19.1543C56.1807 19.3569 56.5135 19.2556 56.5135 19.2556C56.5135 19.2556 56.5135 19.3344 56.4846 19.5033C56.4846 19.6609 56.9043 19.6609 56.9043 19.6609V19.8748C56.9043 20.0887 57.353 19.9874 57.353 19.9874C57.353 19.9874 57.353 20.0887 57.353 20.2801C57.3385 20.4715 57.8451 20.3589 57.8451 20.3589C57.8451 20.3589 57.8162 20.449 57.7583 20.6517C57.7004 20.8431 58.1635 20.753 58.1635 20.753C58.1635 21.0908 58.4964 20.9782 58.4964 20.9782C58.5254 21.3497 58.757 21.3047 58.757 21.3047C58.482 21.5186 58.482 21.8226 58.482 21.8226C58.2504 22.0027 58.207 22.2617 58.207 22.2617C56.2675 22.5431 54.4293 22.971 54.2991 23.1624C54.1833 23.3538 54.632 23.4438 54.632 23.4438L54.4004 23.624C54.1833 23.8041 54.7622 23.9617 54.7622 23.9617C54.7622 23.9617 54.7188 24.0406 54.7188 24.2207C54.7188 24.4008 55.2109 24.3333 55.2109 24.3333C55.2109 24.3333 55.153 24.5472 55.5293 24.5359C55.9057 24.5247 57.2372 24.4796 57.2372 24.4796C57.2372 24.4796 57.6859 24.5697 57.9609 24.5585C58.2359 24.5359 58.453 24.2207 58.728 24.1419C58.9885 24.0631 59.6399 24.1982 60.8122 24.2545C60.6675 24.4233 60.6675 24.4796 60.6096 24.6373C60.5662 24.7949 60.2767 25.2115 60.2333 25.279C60.1754 25.3466 60.0596 25.4592 59.9872 25.628C59.9149 25.7969 59.8135 25.8532 59.8714 25.8645C59.9438 25.887 60.0451 25.8645 60.0451 25.8645C60.0451 25.8645 60.0017 26.0221 59.9293 26.1347C59.857 26.2473 59.8714 26.3261 59.8714 26.3261L59.9728 26.4612C59.9728 26.4612 59.9293 26.5738 59.9438 26.6638C59.9583 26.7539 60.0307 26.9453 60.0307 26.9453C60.0307 26.9453 60.2188 27.0129 60.3346 27.0016C60.4504 26.9903 60.6964 26.8778 60.7978 26.7877C60.8991 26.6976 60.8267 26.3936 61.0149 26.1572C61.2175 25.9095 61.232 25.6843 61.478 25.4029C61.7096 25.1326 62.028 24.885 62.2307 24.671C62.3899 24.4909 62.9109 24.3333 63.128 24.1644C63.7214 24.0968 64.2859 24.0068 64.7925 23.8942C65.8346 23.6578 66.8043 22.6332 67.8175 22.318C68.7149 22.0815 69.6701 21.9802 70.2057 21.8226C70.7412 21.6762 71.407 21.8226 72.3767 21.9352C73.3464 22.0365 74.3162 21.8226 74.3162 21.8226C74.3162 21.8226 76.2412 22.0477 76.2557 21.9014C76.2557 21.755 75.0399 21.2484 75.0399 21.2484L75.0254 21.1808ZM73.7807 21.0682C73.5925 21.0457 73.4478 20.9557 73.4767 20.8768C73.4767 20.7868 73.6504 20.7305 73.8385 20.753C74.0267 20.7755 74.1714 20.8543 74.1425 20.9444C74.128 21.0345 73.9688 21.0795 73.7807 21.0682Z" fill="white"/>
<path d="M32.7479 15.4051C34.036 15.4726 35.4545 15.4051 36.3663 15.2475C37.7268 14.9998 38.3637 14.6845 39.4782 14.6958C40.5926 14.6958 41.5913 15.225 42.0979 15.27C42.6189 15.315 43.9505 15.315 44.24 15.27C44.5295 15.2362 44.3413 15.0673 43.8637 14.8872C43.386 14.707 43.5887 14.662 43.2124 14.4706C42.8361 14.2792 42.7637 13.9752 42.0255 13.9415C41.2874 13.9189 40.8242 14.0653 39.7242 13.9865C38.6242 13.9077 37.915 13.9527 37.0466 13.4798C36.1782 12.9957 36.4676 10.8903 37.0755 9.85453C37.6834 8.80747 37.7703 7.83921 37.64 7.35509C37.5097 6.87096 37.1479 4.41655 37.1479 4.41655C36.9597 3.98872 36.6124 2.24361 36.3518 1.98466C36.0768 1.72571 35.5558 5.15963 35.2229 5.62124C34.89 6.08285 35.8308 2.63767 35.6282 2.28865C35.4255 1.92837 34.5426 5.94774 34.1374 6.51068C33.7321 7.07362 34.6729 2.80655 34.6005 2.53634C34.5137 2.26613 34.1808 2.91914 33.7321 3.90991C33.2689 4.90068 32.7045 8.05313 32.14 8.48096C31.5755 8.90879 30.9821 8.03061 30.8229 7.50145C30.6637 6.97229 30.2874 6.58949 30.1571 7.11865C30.0992 7.40012 30.0703 7.67033 30.0703 7.82795C29.8966 7.55774 29.1295 7.08488 28.9847 7.53523C28.8255 8.05313 29.9834 8.90879 29.9834 9.74194C29.9834 10.5751 29.911 10.6764 29.5203 10.9466C29.1295 11.2168 29.911 11.6897 30.1282 11.9712C30.3453 12.2526 30.2005 12.6692 29.4334 12.7818C28.6663 12.8944 27.2768 12.8156 25.5979 13.0182C23.9189 13.2209 25.4821 13.7275 26.2058 13.8626C26.915 13.9977 29.4768 14.8534 30.9966 15.1799C31.1992 15.225 31.4308 15.2587 31.6624 15.2925L32.7479 15.4051ZM42.1847 14.5157C42.011 14.4819 41.8953 14.4031 41.9097 14.3355C41.9242 14.268 42.0834 14.2342 42.2571 14.2567C42.4308 14.2905 42.5466 14.3693 42.5321 14.4368C42.5176 14.5044 42.3584 14.5382 42.1847 14.5157Z" fill="white"/>
<path d="M56.9333 50.5999C56.9333 50.5999 56.8609 50.5662 56.7451 50.5662C56.5714 50.5662 56.3688 50.5099 56.1951 50.4648C56.0214 50.4198 55.9346 50.3635 55.703 50.2397C55.4569 50.1271 55.1964 49.9694 54.8635 50.0032C54.5162 50.037 54.2267 50.0933 53.9806 50.1383C53.7201 50.1834 53.3004 50.3522 53.0833 50.4085C52.8662 50.4648 52.3017 50.6112 51.9109 50.645C51.5346 50.69 51.1872 50.7576 50.8688 50.7801C50.2898 50.8251 49.928 50.8701 49.3925 50.6675C49.2767 50.6225 49.1609 50.5774 49.0306 50.5211C48.524 50.2847 48.1767 50.082 47.9451 49.6204C47.699 49.1138 47.6267 48.6409 47.5977 48.1005C47.5977 47.8641 47.7425 47.4025 47.8293 47.2673C47.9162 47.121 48.1043 46.9296 48.0898 46.7832C48.0754 46.6369 47.9017 46.5018 47.6412 46.4004C47.3951 46.2878 47.0043 46.164 46.7583 46.0964C46.6135 46.0627 46.4977 46.0289 46.3385 45.9838C45.1517 45.7024 43.8491 45.8938 42.6333 46.0289C40.4767 46.1302 36.9741 46.164 36.8438 46.1978C36.6701 46.2428 37.5964 46.4905 37.8714 46.5468C38.9135 46.6031 40.5925 46.5806 42.0254 46.5018C42.0254 46.5018 41.5043 46.6369 41.1714 46.7269C39.9122 46.7945 38.7688 46.8395 38.7109 46.862C38.5662 46.9071 39.3188 47.0872 39.5359 47.121C39.8977 47.1322 40.3609 47.121 40.853 47.121C40.853 47.121 40.853 47.1322 40.8385 47.1322C40.7662 47.1548 40.6504 47.2223 40.6938 47.2561C40.7227 47.2899 40.578 47.3236 40.5491 47.3462C40.2162 47.3799 39.9846 47.3912 39.9701 47.4025C39.8398 47.4475 40.578 47.6276 40.8096 47.6614C40.8675 47.6614 40.9254 47.6614 40.9833 47.6614C41.0267 47.7064 41.1569 47.7177 41.1569 47.7177C41.1569 47.7177 41.1569 47.7627 41.2148 47.7965C41.2583 47.8303 41.403 47.8415 41.403 47.8415C41.403 47.8415 41.4175 47.8978 41.4754 47.9429C41.5333 47.9766 41.7359 48.0217 41.7359 48.0217C41.7359 48.0217 41.7648 48.123 41.8662 48.1568C41.953 48.1906 42.0109 48.2018 42.0109 48.2018C42.0109 48.2018 42.0109 48.2243 42.0688 48.2694C42.1122 48.3144 42.1846 48.2919 42.1846 48.2919C42.1846 48.2919 42.1846 48.3257 42.228 48.3594C42.2569 48.3932 42.2859 48.3594 42.3438 48.3932C42.4017 48.4383 42.3004 48.4495 42.2569 48.5058C42.2569 48.5058 42.2425 48.5171 42.228 48.5283C42.1267 48.5734 42.1556 48.5846 42.1122 48.6634C42.1122 48.6859 42.0977 48.6972 42.0688 48.7085C41.9385 48.7873 41.9096 48.8886 41.924 48.9449C41.9385 49.0012 41.8517 49.035 41.8083 49.1138C41.7793 49.1701 41.7793 49.2376 41.7648 49.2714V49.2939C41.7648 49.2939 41.7648 49.3164 41.678 49.3952C41.6201 49.4853 41.6346 49.5529 41.6346 49.5529C41.6346 49.5529 41.5912 49.5866 41.5477 49.6767C41.5043 49.7555 41.5622 49.8231 41.5622 49.8231C41.5622 49.8231 41.4898 49.9132 41.4898 50.0145C41.4898 50.1271 41.5477 50.1496 41.5477 50.1496C41.5477 50.1496 41.4319 50.2959 41.4609 50.4085C41.4754 50.5211 41.6056 50.5211 41.6056 50.5211C41.6056 50.5211 41.5622 50.6337 41.5622 50.735C41.5622 50.8364 41.7214 50.8589 41.7214 50.8589C41.7214 50.8589 41.6491 50.9715 41.6635 51.0728C41.678 51.1741 41.8083 51.1741 41.8227 51.2192C41.8227 51.2755 41.6635 51.2755 41.5333 51.3543C41.3885 51.4331 41.3017 51.5119 41.2727 51.602C41.2293 51.692 41.2438 51.7033 41.2004 51.7596C41.1425 51.8271 40.8675 51.9285 40.6214 52.1199C40.3754 52.3225 40.2885 52.3788 40.1727 52.5477C40.0425 52.7166 39.9701 52.7729 39.8398 52.7954C39.7096 52.8292 39.4201 52.8404 39.2754 52.908C39.1306 52.9755 39.0148 53.0206 38.9714 53.1782C38.928 53.3246 38.8267 53.3246 38.7398 53.4709C38.653 53.6285 38.5951 53.7073 38.6385 53.7636C38.6964 53.8199 38.8556 53.8199 38.8556 53.8199C38.8556 53.8199 38.7254 53.8987 38.6819 53.9325C38.6385 53.9663 38.5951 54.0789 38.6819 54.0564C38.7833 54.0226 38.928 54.0113 38.928 54.0113C38.928 54.0113 38.928 54.0339 38.8991 54.0789C38.8846 54.1239 38.8991 54.214 38.8991 54.2815C38.9135 54.3378 39.1451 54.2478 39.5648 54.0901C39.9701 53.9325 39.9556 53.9325 40.2451 53.9213C40.5346 53.9213 40.7806 53.8762 40.9833 53.865C41.1714 53.865 41.2727 53.8425 41.4464 53.7411C41.6201 53.6398 41.7359 53.5948 42.0254 53.5722C42.3293 53.5497 42.7056 53.5385 43.0096 53.5948C43.8201 53.7524 45.0359 53.7636 45.8464 53.6623C46.3964 53.5948 46.9319 53.4034 47.5543 53.212C47.8727 53.1106 49.2188 52.5477 49.4938 52.4239C49.7688 52.2887 50.6806 51.9059 50.9412 51.7934C51.2017 51.6808 51.7083 51.4669 51.9833 51.3768C52.2583 51.2867 52.6056 51.2192 52.9096 51.1854C53.2135 51.1404 53.4451 51.1629 53.7201 51.1404C53.9951 51.1066 54.4872 51.0503 54.6464 51.039C54.8056 51.0278 55.0806 51.039 55.3122 51.0278C55.5438 51.0053 55.7898 50.9152 55.7898 50.9152C55.7898 50.9152 55.8912 50.8701 55.978 50.8589C56.0648 50.8589 56.0793 50.8364 56.2241 50.8364C56.3543 50.8364 56.5714 50.8139 56.6872 50.8139C56.7596 50.8139 56.8464 50.8138 56.9188 50.7913C56.9767 50.7801 57.0346 50.7463 57.0201 50.69C57.0201 50.6675 56.9767 50.6112 56.9622 50.5887L56.9333 50.5999ZM55.1096 50.4423C54.9938 50.4423 54.9069 50.3973 54.9069 50.341C54.9069 50.2847 54.9938 50.2509 55.1096 50.2509C55.2254 50.2509 55.3122 50.2959 55.3122 50.341C55.3122 50.386 55.2254 50.4423 55.1096 50.4423Z" fill="white"/>
<path d="M16.2478 2.32242C16.2044 2.22109 15.9584 2.23235 15.7991 2.17606C15.6544 2.11976 15.5676 2.08599 15.4952 2.02969C15.4228 1.9734 15.3794 1.84955 15.2491 1.72571C15.1189 1.60186 14.2794 1.50053 13.4255 1.43298C12.5715 1.36543 12.1807 1.32039 11.1386 1.2078C10.0965 1.09522 9.98072 0.723679 9.95178 0.566056C9.92283 0.408434 9.58993 0.408434 8.27283 0.149482C6.95572 -0.109469 5.46493 0.025636 4.78467 0.126965C4.10441 0.228294 4.42283 0.53228 4.26362 0.870042C4.11888 1.2078 4.26362 0.870042 3.78599 0.948854C3.30835 1.02766 1.97678 0.825007 1.97678 0.825007C1.42678 0.723679 1.03599 0.937595 0.77546 1.30913C0.514934 1.68067 1.03599 1.84955 1.87546 1.99592C2.71493 2.14228 4.17678 2.20983 4.50967 2.46879C4.84257 2.72774 4.27809 3.57214 4.24914 4.01123C4.2202 4.45033 5.27678 4.16886 5.39257 4.06753C5.49388 3.9662 5.60967 4.01123 5.5952 4.39403C5.58072 4.77683 5.69651 6.01529 5.65309 6.76963C5.60967 7.53522 5.56625 7.92928 5.78335 7.54648C6.00046 7.16368 6.23204 7.07361 6.18862 7.36634C6.1452 7.65907 5.97151 8.12068 6.27546 7.98557C6.57941 7.83921 7.75178 6.42061 8.25835 5.56494C8.77941 4.70928 9.34388 3.76354 9.80704 2.8741C10.2702 1.98466 11.6741 1.84955 12.2241 1.86081C13.1505 1.87207 13.382 2.15354 13.8886 2.28865C14.3952 2.42375 14.9741 2.44627 15.1189 2.44627C15.2636 2.44627 15.886 2.50256 16.0452 2.51382C16.2044 2.51382 16.2912 2.44627 16.2478 2.3562V2.32242ZM14.8584 1.92836C14.7426 1.90585 14.6847 1.84955 14.6991 1.79326C14.7136 1.74822 14.8149 1.72571 14.9307 1.74822C15.032 1.77074 15.1189 1.82704 15.0899 1.88333C15.0755 1.92836 14.9741 1.95088 14.8584 1.92836Z" fill="white"/>
<path d="M134.932 23.0048H135.7V25.1777H136.901L138.826 23.0048H139.694L137.726 25.2002L137.436 25.3691V25.4141L137.74 25.583L139.839 27.9248H138.971L136.973 25.6731H135.685V27.9248H134.918V23.0048H134.932Z" fill="white"/>
<path d="M140.649 23.0048H144.673V23.5001H141.417V25.1889H144.456V25.6843H141.417V27.4407H144.745V27.9361H140.649V23.016V23.0048Z" fill="white"/>
<path d="M147.481 26.281L145.18 23.0048H146.005L147.582 25.279L147.828 25.7181H147.901L148.147 25.279L149.724 23.0048H150.549L148.263 26.2698V27.9361H147.495V26.2923L147.481 26.281Z" fill="white"/>
<path d="M134.932 31.4263H135.584L138.84 34.8602L139.332 35.4457H139.39V31.4263H140.085V36.3464H139.419L136.163 32.9125L135.671 32.3383H135.613V36.3464H134.918V31.4263H134.932Z" fill="white"/>
<path d="M140.91 36.3013L143.182 31.4263H144.34L146.612 36.3013V36.3464H145.86L145.165 34.8827H142.343L141.662 36.3464H140.91V36.3013ZM144.962 34.3874L144.181 32.7211L143.79 31.8654H143.718L143.327 32.7211L142.545 34.3874H144.962Z" fill="white"/>
<path d="M148.204 31.9217H146.164V31.415H151.012V31.9217H148.971V36.3464H148.204V31.9217Z" fill="white"/>
<path d="M151.91 31.4263H152.677V36.3464H151.91V31.4263Z" fill="white"/>
<path d="M156.628 36.4139C155.746 36.4139 155.065 36.2 154.588 35.7834C154.11 35.3556 153.878 34.7364 153.878 33.892C153.878 33.0476 154.11 32.4283 154.588 32.0005C155.065 31.5727 155.746 31.3587 156.628 31.3587C157.511 31.3587 158.192 31.5727 158.669 32.0005C159.147 32.4283 159.378 33.0588 159.378 33.892C159.378 34.7251 159.147 35.3443 158.669 35.7722C158.192 36.2 157.511 36.4139 156.628 36.4139ZM156.628 35.9073C157.294 35.9073 157.786 35.7384 158.119 35.4119C158.452 35.0854 158.611 34.5787 158.611 33.892C158.611 32.5409 157.946 31.8541 156.628 31.8541C155.963 31.8541 155.471 32.023 155.138 32.3495C154.805 32.6873 154.646 33.1939 154.646 33.8807C154.646 34.5675 154.805 35.0741 155.138 35.4006C155.456 35.7271 155.963 35.896 156.628 35.896V35.9073Z" fill="white"/>
<path d="M160.579 31.4263H161.245L164.487 34.8602L164.979 35.4457H165.037V31.4263H165.732V36.3464H165.066L161.81 32.9125L161.318 32.3383H161.26V36.3464H160.565V31.4263H160.579Z" fill="white"/>
<path d="M166.557 36.3013L168.829 31.4263H169.987L172.26 36.3013V36.3464H171.507L170.812 34.8827H167.975L167.295 36.3464H166.542V36.3013H166.557ZM170.61 34.3874L169.828 32.7211L169.437 31.8654H169.365L168.974 32.7211L168.192 34.3874H170.61Z" fill="white"/>
<path d="M173.07 31.4263H173.837V35.8622H176.732V36.3576H173.085V31.4376L173.07 31.4263Z" fill="white"/>
<path d="M137.48 44.8242C135.569 44.8242 134.614 43.9911 134.614 42.3135C134.614 41.4466 134.845 40.8161 135.323 40.3995C135.801 39.9829 136.51 39.769 137.465 39.769C137.668 39.769 137.885 39.769 138.131 39.8028C138.377 39.8253 138.623 39.8478 138.884 39.8929V40.3995C138.609 40.3657 138.362 40.3432 138.145 40.3207C137.928 40.2982 137.726 40.2982 137.566 40.2982C136.814 40.2982 136.278 40.4558 135.931 40.7823C135.584 41.1088 135.41 41.6155 135.41 42.3248C135.41 43.0341 135.584 43.5294 135.916 43.8447C136.249 44.1712 136.785 44.3288 137.509 44.3288C137.595 44.3288 137.711 44.3288 137.827 44.3176C137.957 44.3176 138.073 44.3063 138.203 44.295C138.334 44.295 138.464 44.2725 138.58 44.25C138.71 44.2388 138.811 44.2162 138.898 44.205V44.7004C138.695 44.7341 138.464 44.7679 138.203 44.7904C137.943 44.8129 137.711 44.8355 137.494 44.8355L137.48 44.8242Z" fill="white"/>
<path d="M139.969 39.8478H140.736V44.2725H143.631V44.7679H139.984V39.8478H139.969Z" fill="white"/>
<path d="M146.699 44.8355C146.251 44.8355 145.86 44.8017 145.542 44.7116C145.223 44.6328 144.963 44.509 144.76 44.3401C144.557 44.1712 144.398 43.9573 144.311 43.6983C144.21 43.4394 144.167 43.1354 144.167 42.7751V39.8366H144.934V42.7526C144.934 43.3155 145.078 43.7096 145.382 43.9573C145.672 44.205 146.12 44.3176 146.714 44.3176C147.307 44.3176 147.756 44.1937 148.045 43.9573C148.335 43.7208 148.494 43.3155 148.494 42.7526V39.8366H149.261V42.7751C149.261 43.1354 149.218 43.4394 149.117 43.6983C149.015 43.9573 148.87 44.1712 148.668 44.3401C148.465 44.509 148.205 44.6215 147.872 44.7116C147.553 44.7904 147.163 44.8355 146.728 44.8355H146.699Z" fill="white"/>
<path d="M152.286 44.8467C152.141 44.8467 151.996 44.8467 151.823 44.8355C151.664 44.8355 151.49 44.813 151.316 44.7904C151.143 44.7792 150.969 44.7454 150.795 44.7229C150.621 44.7004 150.448 44.6666 150.289 44.6328V44.1262C150.636 44.1937 150.969 44.25 151.316 44.2838C151.664 44.3176 151.968 44.3401 152.243 44.3401C152.735 44.3401 153.111 44.2613 153.371 44.1262C153.632 43.9798 153.762 43.7771 153.762 43.5182C153.762 43.3718 153.719 43.2367 153.646 43.1354C153.574 43.0341 153.473 42.944 153.343 42.8652C153.212 42.7976 153.053 42.7301 152.879 42.6738C152.691 42.6288 152.503 42.5725 152.286 42.5274C151.953 42.4599 151.664 42.3811 151.432 42.291C151.186 42.2122 150.998 42.1109 150.839 41.9983C150.679 41.8857 150.564 41.7506 150.491 41.6042C150.419 41.4578 150.375 41.2777 150.375 41.0863C150.375 40.8836 150.433 40.6923 150.535 40.5234C150.636 40.3545 150.781 40.2081 150.969 40.0955C151.157 39.9829 151.389 39.8929 151.664 39.8253C151.939 39.7578 152.228 39.724 152.575 39.724C152.807 39.724 153.068 39.7353 153.343 39.769C153.618 39.7916 153.921 39.8366 154.254 39.8929L154.225 40.3883C153.95 40.332 153.675 40.2869 153.4 40.2644C153.125 40.2419 152.865 40.2194 152.633 40.2194C152.185 40.2194 151.823 40.2982 151.562 40.4446C151.302 40.6022 151.171 40.8048 151.171 41.0638C151.171 41.1876 151.2 41.3002 151.244 41.3903C151.302 41.4804 151.374 41.5704 151.49 41.638C151.606 41.7168 151.75 41.7843 151.939 41.8406C152.127 41.8969 152.344 41.9645 152.619 42.0208C152.894 42.0771 153.154 42.1446 153.4 42.2234C153.632 42.3023 153.835 42.3811 154.008 42.4937C154.182 42.6062 154.312 42.7301 154.414 42.8877C154.515 43.0453 154.558 43.2367 154.558 43.4619C154.558 43.901 154.37 44.2388 153.979 44.4639C153.589 44.7004 153.024 44.813 152.286 44.813V44.8467Z" fill="white"/>
<path d="M157.062 40.3432H155.021V39.8478H159.87V40.3432H157.829V44.7679H157.062V40.3432Z" fill="white"/>
<path d="M160.768 39.8478H164.791V40.3432H161.535V42.032H164.574V42.5274H161.535V44.2838H164.864V44.7792H160.768V39.8591V39.8478Z" fill="white"/>
<path d="M168.41 42.9327C168.294 42.9327 168.178 42.944 168.048 42.9553C167.918 42.9553 167.787 42.9553 167.657 42.9553C167.541 42.9553 167.411 42.9553 167.237 42.9553C167.078 42.9553 166.933 42.944 166.774 42.9215V44.7679H166.021V39.8816C166.571 39.8141 167.093 39.7803 167.599 39.7803C168.598 39.7803 169.336 39.9041 169.799 40.1631C170.262 40.4108 170.494 40.8161 170.494 41.3678C170.494 41.7618 170.378 42.0771 170.161 42.3135C169.929 42.5499 169.582 42.7188 169.119 42.8314L170.711 44.7679H169.857L168.41 42.9327ZM167.758 42.4711C168.106 42.4711 168.41 42.4486 168.656 42.4148C168.902 42.3811 169.104 42.3135 169.264 42.2234C169.423 42.1334 169.539 42.0208 169.611 41.8857C169.683 41.7506 169.727 41.5817 169.727 41.379C169.727 40.985 169.568 40.7148 169.264 40.5346C168.96 40.3657 168.453 40.2757 167.744 40.2757C167.599 40.2757 167.44 40.2757 167.252 40.2982C167.078 40.2982 166.919 40.3207 166.789 40.332V42.4148C166.875 42.4374 167.006 42.4486 167.194 42.4599C167.382 42.4599 167.556 42.4711 167.758 42.4711Z" fill="white"/>
</svg>
